<svg xmlns="http://www.w3.org/2000/svg" width="160" height="160" viewBox="0 0 160 160"><defs><linearGradient id="g" x1="0" y1="0" x2="1" y2="1"><stop offset="0" stop-color="#00E5FF"/><stop offset="1" stop-color="#22C55E"/></linearGradient></defs><rect width="160" height="160" rx="38" fill="#050816"/><rect x="4" y="4" width="152" height="152" rx="34" fill="none" stroke="#1E293B" stroke-width="4"/><path d="M50 55c0-12 9-20 25-20h34v18H77c-6 0-9 2-9 6 0 5 4 7 15 10l10 3c15 5 21 13 21 26 0 14-11 23-28 23H50v-18h35c7 0 10-2 10-7 0-4-4-6-13-9l-11-3C57 80 50 72 50 55Z" fill="url(#g)"/><text x="80" y="145" text-anchor="middle" fill="#64748B" font-family="Arial, sans-serif" font-size="9" font-weight="700" letter-spacing="2">SS</text></svg>